<?xml version="1.0" encoding="utf-8"?>
<!-- Generator: Adobe Illustrator 24.3.0, SVG Export Plug-In . SVG Version: 6.00 Build 0)  -->
<svg version="1.0" id="Layer_1" xmlns="http://www.w3.org/2000/svg" xmlns:xlink="http://www.w3.org/1999/xlink" x="0px" y="0px"
	 viewBox="0 0 300 174" style="enable-background:new 0 0 300 174;" xml:space="preserve">
<style type="text/css">
	.st0{fill:#454545;}
	.st1{fill:#FF005C;}
	.st2{fill:#00AAFF;}
</style>
<g>
	<g>
		<path class="st0" d="M92.2,48.3c0-16.5-13.4-29.8-29.8-29.8H10.9v12.7h51.5c9.4,0,17.1,7.7,17.1,17.1c0,9.4-7.7,17.1-17.1,17.1
			H10.9v12.7h51.5c9.4,0,17.1,7.7,17.1,17.1c0,9.4-7.7,17.1-17.1,17.1H10.9v12.7h51.5c16.5,0,29.8-13.4,29.8-29.8
			c0-9.5-4.5-18-11.5-23.5C87.7,66.3,92.2,57.8,92.2,48.3z"/>
		<path class="st0" d="M244.9,18.4c-24.2,0-43.8,19.7-43.8,43.8v62.8h12.7V62.3c0-17.2,14-31.1,31.1-31.1c17.2,0,31.1,14,31.1,31.1
			v62.8h12.7V62.3C288.8,38.1,269.1,18.4,244.9,18.4z"/>
		<circle class="st1" cx="177.8" cy="24.8" r="6.4"/>
		<circle class="st2" cx="244.9" cy="91.9" r="6.4"/>
	</g>
	<g>
		<path class="st0" d="M21.2,145.6c0,1.4-0.9,2.5-2.3,2.9c1.7,0.3,2.8,1.6,2.8,3.3c0,2.2-1.8,3.6-4.8,3.6h-6v-13.1h5.8
			C19.5,142.4,21.2,143.6,21.2,145.6z M18.7,146.1c0-1-0.8-1.6-2.1-1.5h-3.2v3.2h3.2C17.9,147.7,18.7,147.1,18.7,146.1z M19.1,151.5
			c0-1.1-1-1.7-2.5-1.7h-3.2v3.5h3.2C18.2,153.3,19.1,152.6,19.1,151.5z"/>
		<path class="st0" d="M43,142.4v2.2H36v3.2h6.3v2.2H36v3.3h7.3v2.2h-9.8v-13.1H43z"/>
		<path class="st0" d="M63.7,152.7h-6.4l-1.2,2.8h-2.6l5.7-13.1h2.6l5.7,13.1h-2.7L63.7,152.7z M62.8,150.5l-2.3-5.5l-2.3,5.5H62.8z
			"/>
		<path class="st0" d="M83.6,153.3c2,0,3.2-1.2,3.2-3.3v-7.6h2.5v7.6c0,3.4-2.2,5.6-5.7,5.6c-3.6,0-5.8-2.1-5.8-5.6v-7.6h2.5v7.6
			C80.3,152,81.6,153.3,83.6,153.3z"/>
		<path class="st0" d="M110.8,142.4v2.2h-4.1v10.8h-2.5v-10.8h-4.1v-2.2H110.8z"/>
		<path class="st0" d="M127.7,151.1v4.3h-2.5v-4.2l-4.9-8.9h2.5l3.6,6.1l3.5-6.1h2.5L127.7,151.1z"/>
		<path class="st1" d="M145.1,154.2c0,0.8-0.5,1.4-1.3,1.4c-0.7,0-1.3-0.6-1.3-1.4s0.5-1.3,1.3-1.3
			C144.6,152.9,145.1,153.4,145.1,154.2z"/>
		<path class="st0" d="M165.9,142.4l0,2.2h-6.5v3.5h5.9v2.2h-5.9v5.2h-2.5v-13.1H165.9z"/>
		<path class="st0" d="M190,148.9c0,3.7-3,6.6-7,6.6c-3.9,0-7-2.9-7-6.6c0-3.8,3-6.6,7-6.6C187,142.3,190,145.1,190,148.9z
			 M178.6,148.9c0,2.5,2,4.4,4.4,4.4c2.4,0,4.4-1.9,4.4-4.4c0-2.5-2-4.4-4.4-4.4C180.7,144.5,178.6,146.4,178.6,148.9z"/>
		<path class="st0" d="M209.7,155.4l-2.3-3.9c-0.1,0-0.3,0-0.5,0H204v3.8h-2.5v-13.1h5.4c3.4,0,5.3,1.6,5.3,4.5
			c0,2.1-0.9,3.5-2.6,4.2l2.9,4.3H209.7z M204,149.4h2.9c1.9,0,2.9-0.8,2.9-2.4c0-1.6-1-2.4-2.9-2.4H204V149.4z"/>
		<path class="st2" d="M226.1,154.2c0,0.8-0.5,1.4-1.3,1.4c-0.7,0-1.3-0.6-1.3-1.4s0.5-1.3,1.3-1.3
			C225.6,152.9,226.1,153.4,226.1,154.2z"/>
		<path class="st0" d="M246.4,152.7H240l-1.2,2.8h-2.6l5.7-13.1h2.6l5.7,13.1h-2.7L246.4,152.7z M245.5,150.5l-2.3-5.5l-2.3,5.5
			H245.5z"/>
		<path class="st0" d="M263.7,142.4v10.8h5.6v2.3h-8.1v-13.1H263.7z"/>
		<path class="st0" d="M283.1,142.4v10.8h5.6v2.3h-8.1v-13.1H283.1z"/>
	</g>
	<path class="st0" d="M184.1,78.1c0-7-5.7-12.7-12.7-12.7l-49.5,0v-31v-16h-12.7v12.7v3.3v31l0,0h0v0c0,7,5.7,12.7,12.7,12.7h49.5
		l0,0v24.8v9.5v12.7h12.7v-22.2L184.1,78.1L184.1,78.1L184.1,78.1L184.1,78.1z"/>
</g>
</svg>
